<svg viewBox="0 0 700 150" role="img" xmlns="http://www.w3.org/2000/svg" style="width:100%;height:auto;display:block;margin-top:10px;"
     aria-label="A 57-minute member visit crosses five rooms and the club ad plays about eight times during it.">
  <line x1="10.0" y1="32" x2="10.0" y2="54" stroke="#C9A227" stroke-width="3.4"/>
  <line x1="99.5" y1="32" x2="99.5" y2="54" stroke="#C9A227" stroke-width="3.4"/>
  <line x1="188.9" y1="32" x2="188.9" y2="54" stroke="#C9A227" stroke-width="3.4"/>
  <line x1="278.4" y1="32" x2="278.4" y2="54" stroke="#C9A227" stroke-width="3.4"/>
  <line x1="367.9" y1="32" x2="367.9" y2="54" stroke="#C9A227" stroke-width="3.4"/>
  <line x1="457.4" y1="32" x2="457.4" y2="54" stroke="#C9A227" stroke-width="3.4"/>
  <line x1="546.8" y1="32" x2="546.8" y2="54" stroke="#C9A227" stroke-width="3.4"/>
  <line x1="636.3" y1="32" x2="636.3" y2="54" stroke="#C9A227" stroke-width="3.4"/>
  <text x="690" y="26" text-anchor="end" font-size="13" font-weight="600" fill="#7A5B00" letter-spacing="1.4" font-family="Work Sans,sans-serif">YOUR AD, 8&#215;/HOUR &#8594; ~8 PLAYS</text>
  <rect x="10.0" y="62" width="47.7" height="34" fill="#E7EBF3" stroke="#FFFFFF" stroke-width="2"/>
  <circle cx="33.9" cy="79" r="5" fill="#00377E"/>
  <text x="33.9" y="116" text-anchor="middle" font-size="13" fill="#5A5A5A" font-family="Work Sans,sans-serif">Front desk</text>
  <rect x="57.7" y="62" width="214.7" height="34" fill="#E7EBF3" stroke="#FFFFFF" stroke-width="2"/>
  <circle cx="165.1" cy="79" r="5" fill="#00377E"/>
  <text x="165.1" y="116" text-anchor="middle" font-size="13" fill="#5A5A5A" font-family="Work Sans,sans-serif">Cardio</text>
  <rect x="272.5" y="62" width="190.9" height="34" fill="#E7EBF3" stroke="#FFFFFF" stroke-width="2"/>
  <circle cx="367.9" cy="79" r="5" fill="#00377E"/>
  <text x="367.9" y="116" text-anchor="middle" font-size="13" fill="#5A5A5A" font-family="Work Sans,sans-serif">Weights</text>
  <rect x="463.3" y="62" width="143.2" height="34" fill="#E7EBF3" stroke="#FFFFFF" stroke-width="2"/>
  <circle cx="534.9" cy="79" r="5" fill="#00377E"/>
  <text x="534.9" y="116" text-anchor="middle" font-size="13" fill="#5A5A5A" font-family="Work Sans,sans-serif">Freestyle</text>
  <rect x="606.5" y="62" width="83.5" height="34" fill="#E7EBF3" stroke="#FFFFFF" stroke-width="2"/>
  <circle cx="648.2" cy="79" r="5" fill="#00377E"/>
  <text x="648.2" y="116" text-anchor="middle" font-size="13" fill="#5A5A5A" font-family="Work Sans,sans-serif">Studio</text>
  <text x="10" y="138" font-size="12" fill="#8A8A8A" font-family="Work Sans,sans-serif">0 MIN</text>
  <text x="690" y="138" text-anchor="end" font-size="12" fill="#8A8A8A" font-family="Work Sans,sans-serif">57 MIN</text>
</svg>